::::::: Feel Free Presents ::::::::


::::: Arthur Christmas DVDSCR :::::


::Information::


Arthur Christmas 2011 DvDScr XviD Ac3 Feel-Free
Language: English
Genre:Animation | Comedy | Drama  
Language:English
IMDb:http://www.imdb.com/title/tt1430607/
Source:JKR DVD Thanks!
Feel Free Exclusive!


::Details::


Format                           : AVI
Format/Info                      : Audio Video Interleave
File size                        : 1.40 GiB
Duration                         : 1h 37mn
Overall bit rate                 : 2 054 Kbps

Video
ID                               : 0
Format                           : MPEG-4 Visual
Format profile                   : Advanced Simple@L5
Format settings, BVOP            : Yes
Format settings, QPel            : No
Format settings, GMC             : No warppoints
Format settings, Matrix          : Default (H.263)
Codec ID                         : XVID
Codec ID/Hint                    : XviD
Duration                         : 1h 37mn
Bit rate                         : 1 596 Kbps
Width                            : 640 pixels
Height                           : 352 pixels
Display aspect ratio             : 16:9
Frame rate                       : 23.976 fps
Color space                      : YUV
Chroma subsampling               : 4:2:0
Bit depth                        : 8 bits
Scan type                        : Progressive
Bits/(Pixel*Frame)               : 0.296
Stream size                      : 1.09 GiB (78%)
Writing library                  : XviD 1.2.1 (UTC 2008-12-04)

Audio
ID                               : 1
Format                           : AC-3
Format/Info                      : Audio Coding 3
Mode extension                   : CM (complete main)
Codec ID                         : 2000
Duration                         : 1h 37mn
Bit rate mode                    : Constant
Bit rate                         : 448 Kbps
Channel(s)                       : 6 channels
Channel positions                : Front: L C R, Side: L R, LFE
Sampling rate                    : 48.0 KHz
Bit depth                        : 16 bits
Stream size                      : 312 MiB (22%)
Alignment                        : Aligned on interleaves
Interleave, duration             : 42 ms (1.00 video frame)
Interleave, preload duration     : 512 ms


::Plot::


On Christmas night at the North Pole, Santa youngest son looks to use his 
father's high-tech operation for an urgent mission.


::Greetz::


CRYS,IMAGINE,LKRG,FXG,3Li,FLAWL3SS,TA,iLLUSiON,EMBER,ETRG,BHRG,iLLUMiNATi
MiSTERE,ViSiON,DTRG,SAFCuk009,LU,TheFalcon007,MYSTiC,PrisM,Noir,WBZ,LAP,Rx,
Kingdom,Fabreezy,HDLiTE,TWiZTED,ExtraTorrentRG.ELEKTRI4KA,MAGNAT,CM8,
               
And to all the other p2p grps past and present.


::Poster::

 
http://i.imgur.com/di5dh.jpg


::Screens::

 
http://i.imgur.com/TBo7Q.png

 
http://i.imgur.com/j2KbS.png

 
http://i.imgur.com/fhkJA.png


ENJOY!